/* XPM */
static char *teddyIcon[]={
"32 32 6 1",
". c None",
"b c #303030",
"d c #808080",
"# c #bbbbff",
"c c #bbffbb",
"a c #ffbbbb",
"................................",
"................................",
"....#####..............#####....",
"...#######............#######...",
"..#########..........#########..",
".####aaa################aaa####.",
".###aaaaa##############aaaaa###.",
".###aaaaa###############aaaa###.",
".###aaaa#################aaa###.",
".####aa###################a####.",
"..############################..",
"...##########################...",
"....########################....",
".....#######################....",
"....#########################...",
"....#######b#########b#######...",
"....######bbb#######bbb######...",
"....#######b#########b#######...",
"....##########ccdcc##########...",
"....#########ccdddcc#########...",
"....########ccccdcccc########...",
".....######ccccccccccc######....",
".....######cccccdccccc######....",
"......#####cccccdccccc#####.....",
"......#####ccdccdccdcc#####.....",
".......####cccddcddccc####......",
"........####ccccccccc####.......",
".........####ccccccc####........",
"...........###ccccc###..........",
".............#######............",
"................................",
"................................"};
