/* XPM */
static char *magick[] = {
/* columns rows colors chars-per-pixel */
"16 16 3 1",
"  c None",
"o c #000000000000",
"a c #000000008000",
/* pixels */
"o        aaaaa  ",
"oo      aaa aaa ",
"ooo    aaa   aaa",
"oooo   aa     aa",
"ooooo  aa     aa",
"oooooo  a    aaa",
"ooooooo     aaa ",
"oooooooo   aaa  ",
"ooooooooo aaa   ",
"ooooo     aaa   ",
"oo ooo          ",
"o  ooo    aaa   ",
"    ooo   aaa   ",
"    ooo         ",
"     ooo        ",
"     ooo        "};
